<?xml version="1.0" encoding="utf-8"?>
<!-- Generator: Adobe Illustrator 19.0.0, SVG Export Plug-In . SVG Version: 6.00 Build 0)  -->
<svg version="1.1" id="Layer_1" xmlns="http://www.w3.org/2000/svg" xmlns:xlink="http://www.w3.org/1999/xlink" x="0px" y="0px"
	 viewBox="0 0 500 500" style="enable-background:new 0 0 500 500;" xml:space="preserve">
<style type="text/css">
	.st0{fill:#FFFFFF;}
	.st1{fill:#0D528A;}
	.st2{fill:#F5792A;}
</style>
<g id="XMLID_1_">
	<path id="XMLID_3_" class="st0" d="M117.1,254.9c0.8-6.2,4.1-11.5,8.9-15.3c4.7-3.7,10.7-5.8,17.2-5.7c6.4,0.2,12.2,2.6,16.3,6.5
		c4.2,4,6.8,9.5,6.7,15.7c-0.1,6.4-3,12.2-7.7,16.4c-4.8,4.3-11.3,7-18.5,6.8c-7.1-0.2-13.3-3.1-17.5-7.7
		C118.4,267.2,116.3,261.2,117.1,254.9"/>
	<path id="XMLID_4_" class="st1" d="M126.6,255.7c0.2-3.8,2.1-7.1,4.9-9.5c2.7-2.3,6.4-3.7,10.5-3.7c4,0,7.7,1.4,10.5,3.7
		c2.8,2.4,4.6,5.7,4.9,9.5c0.2,3.9-1.3,7.5-4.1,10.2c-2.8,2.7-6.8,4.4-11.2,4.4c-4.5,0-8.4-1.7-11.2-4.4
		C128,263.2,126.4,259.6,126.6,255.7"/>
	<path id="XMLID_7_" class="st2" d="M102.3,263.4c0,1.5,0.5,4.4,1.2,6.6c1.5,4.8,4,9.2,7.5,13c3.6,4,8,7.2,13.2,9.5
		c5.4,2.4,11.2,3.6,17.3,3.6c6.1,0,11.9-1.2,17.3-3.7c5.1-2.3,9.6-5.5,13.2-9.5c3.5-3.9,6-8.3,7.5-13.1c0.8-2.4,1.2-4.8,1.4-7.3
		c0.2-2.4,0.1-4.8-0.2-7.2c-0.7-4.7-2.3-9.1-4.8-13.1c-2.3-3.7-5.2-6.9-8.8-9.7l0,0l-35.4-27.2l-0.1-0.1c-2.3-1.8-6.2-1.8-8.8,0
		c-2.6,1.8-2.9,4.8-0.6,6.7l0,0l14.8,12l-45.1,0h-0.1c-3.7,0-7.3,2.4-8,5.5c-0.7,3.1,1.8,5.8,5.7,5.8l0,0l22.8,0l-40.8,31.3
		l-0.2,0.1c-3.8,2.9-5.1,7.8-2.7,10.9c2.5,3.2,7.7,3.2,11.6,0l22.2-18.2C102.6,259.5,102.2,261.9,102.3,263.4L102.3,263.4z
		 M159.4,271.6c-4.6,4.7-11,7.3-17.9,7.3c-7,0-13.4-2.6-18-7.3c-2.2-2.3-3.9-4.9-4.9-7.7c-1-2.7-1.4-5.6-1.1-8.6
		c0.2-2.9,1.1-5.6,2.5-8.1c1.3-2.4,3.2-4.6,5.5-6.5c4.5-3.6,10.1-5.6,16.1-5.6c5.9,0,11.6,1.9,16.1,5.6c2.3,1.8,4.1,4,5.4,6.5
		c1.4,2.5,2.2,5.2,2.5,8.1c0.3,2.9-0.1,5.8-1.1,8.6C163.3,266.7,161.6,269.3,159.4,271.6"/>
	<path id="XMLID_10_" class="st1" d="M369.5,255.7c0.3-3.8,3.3-6.2,7.8-6.2c4.5,0,7.5,2.4,7.8,6.2H369.5z M384.6,265.1
		c-1.2,2.8-3.9,4.5-7.6,4.5c-4.6,0-7.7-2.9-7.9-7.5h26.6c0-0.5,0-0.9,0-1.3c0-11.4-6.7-17.9-18.7-17.9c-11.7,0-18.7,6.5-18.7,16.7
		c0,10.2,7.2,16.7,18.7,16.7c6.9,0,12.3-2.4,15.6-6.6L384.6,265.1"/>
	<path id="XMLID_13_" class="st1" d="M251.4,255.7c0.4-3.8,3.3-6.2,7.8-6.2c4.5,0,7.5,2.4,7.8,6.2H251.4z M266.6,265.1
		c-1.2,2.8-3.9,4.5-7.6,4.5c-4.6,0-7.7-2.9-7.9-7.5h26.6c0-0.5,0-0.9,0-1.3c0-11.4-6.7-17.9-18.7-17.9c-11.7,0-18.7,6.5-18.7,16.7
		c0,10.2,7.2,16.7,18.7,16.7c6.9,0,12.3-2.4,15.7-6.6L266.6,265.1"/>
	<rect id="XMLID_14_" x="228.3" y="236" class="st1" width="9.6" height="39.3"/>
	<path id="XMLID_15_" class="st1" d="M280.1,246.5h9.7v2.3c3.4-3.6,7.5-5.5,12.1-5.5c5.3,0,9.4,1.8,11.4,5c1.7,2.6,1.9,5.7,1.9,9.8
		v17.2h-9.7v-15.1c0-6.3-1.3-9.2-6.8-9.2c-5.6,0-9,3.3-9,8.9v15.4h-9.7L280.1,246.5"/>
	<path id="XMLID_18_" class="st1" d="M346.3,260.1c0,5.4-3.6,8.9-9.1,8.9c-5.6,0-9.2-3.4-9.2-8.8c0-5.5,3.5-8.9,9.2-8.9
		C342.7,251.2,346.3,254.7,346.3,260.1L346.3,260.1z M346.3,247.8c-2.4-2.6-6-4-10.9-4c-10.6,0-17.8,6.5-17.8,16.3
		c0,9.6,7.2,16.3,17.6,16.3c4.8,0,8.3-1.2,11.1-3.9v2.9h9.7v-41.8l-9.7,2.5V247.8"/>
	<path id="XMLID_21_" class="st1" d="M206.3,251.2c5.6,0,9.1,3.4,9.1,8.9c0,5.4-3.6,8.8-9.1,8.8c-5.6,0-9.1-3.5-9.1-8.9
		C197.2,254.7,200.8,251.2,206.3,251.2L206.3,251.2z M197.2,236l-9.7-2.5v41.8h9.7v-2.9c2.7,2.7,6.2,3.9,11,3.9
		c10.5,0,17.6-6.7,17.6-16.3c0-9.8-7.2-16.3-17.8-16.3c-4.9,0-8.4,1.4-10.9,4V236"/>
	<path id="XMLID_22_" class="st1" d="M398.2,275.3v-28.8h9.7v1.8c2.9-3.5,5.9-5.2,9.4-5.2c0.7,0,1.6,0.1,2.7,0.2v8.2
		c-0.9-0.1-2-0.1-3.1-0.1c-5.6,0-9.1,3.7-9.1,10v13.9L398.2,275.3"/>
	<path id="XMLID_25_" class="st1" d="M432.5,243.1h-0.7l0-2.6l0-0.9l-0.2,0.7l-0.9,2.8h-0.7l-0.9-2.8l-0.2-0.7l0.1,0.9l0,2.6h-0.7
		v-4.3h1l1.1,3.4l1-3.4h1V243.1L432.5,243.1z M426.6,243.1h-0.7v-3.6h-1.4v-0.6h3.5v0.6h-1.4V243.1"/>
</g>
</svg>
